<?xml version="1.0" encoding="utf-8"?>
<!-- Generator: Adobe Illustrator 19.1.0, SVG Export Plug-In . SVG Version: 6.00 Build 0)  -->
<svg version="1.1" id="Layer_1" xmlns="http://www.w3.org/2000/svg" xmlns:xlink="http://www.w3.org/1999/xlink" x="0px" y="0px"
	 viewBox="0 0 22.6 22.4" style="enable-background:new 0 0 22.6 22.4;" xml:space="preserve">
<style type="text/css">
	.st0{fill-rule:evenodd;clip-rule:evenodd;}
</style>
<g>
	<path class="st0" d="M12.2,6.1L12.2,6.1l-0.1,0.2v0.1v0.1l0.3,1l-0.9-0.7l-0.1-0.1h-0.1h-0.1l-0.1,0.1l-0.9,0.7l0.3-1l0-0.1l0-0.1
		l-0.1-0.1l-0.1-0.1l-1-0.8h1.2l0.1,0l0.1-0.1l0.1,0L10.9,5l0.4-0.9l0.4,0.9l0,0.1l0.1,0.1l0.1,0l0.1,0h1.2L12.2,6.1L12.2,6.1
		L12.2,6.1z M14.3,4.5h-2l-0.7-1.4l0-0.1l-0.1,0l-0.1-0.1h-0.1h-0.1L11.1,3L11,3l0,0.1l-0.6,1.4h-2H8.3l-0.1,0L8.1,4.7l0,0.1l0,0.1
		V5l0,0.1l0.1,0.1l1.6,1.3l-0.6,2l0,0.1l0,0.1l0,0.1l0.1,0.1l0.1,0l0.1,0l0.1,0l0.1-0.1l1.6-1.3L13,8.9L13.1,9l0.1,0l0.1,0l0.1,0
		l0.1-0.1l0-0.1l0-0.1l0-0.1l-0.6-2l1.6-1.3l0.1-0.1l0-0.1V4.9V4.8l0-0.1l-0.1-0.1l-0.1,0H14.3L14.3,4.5L14.3,4.5L14.3,4.5z"/>
	<path class="st0" d="M18.4,9.3l0.3-0.6L19,8l0.2-0.8l0.2-0.8l0.2-0.9l0.2-1L20,3.4L20,2.3h1.7v0.6v0.7l0,0.8l-0.1,0.9l-0.1,0.5
		l-0.1,0.4l-0.1,0.4L21,7l-0.1,0.4l-0.2,0.4l-0.2,0.4l-0.3,0.3L20,8.6l-0.2,0.2l-0.2,0.1L19.4,9l-0.2,0.1l-0.2,0.1l-0.2,0.1
		L18.4,9.3L18.4,9.3L18.4,9.3L18.4,9.3z M14.4,12.3l-0.5,0.3l-0.4,0.3L13.2,13L13,13.2l-0.2,0.2l-0.2,0.2l-0.1,0.2L12.3,14l-0.1,0.3
		L12,14.6L12,14.9l-0.1,0.3l0,0.4v0.4l0,0.5l0,0.5l0.1,0.5l0.1,0.4l0.1,0.4l0.2,0.4l0.2,0.4l0.2,0.3l0.3,0.3l0.3,0.2l0.3,0.2
		l0.3,0.2l0.4,0.1l0.4,0.1l0.4,0.1l0.4,0v1.1H6.8v-1.1l0.5,0l0.4-0.1l0.4-0.1l0.4-0.1l0.3-0.2l0.3-0.2l0.3-0.2l0.2-0.3l0.2-0.3
		l0.2-0.3l0.1-0.4l0.1-0.4l0.1-0.5l0.1-0.5l0-0.5v-0.6v-0.4l0-0.4l0-0.3l-0.1-0.3l-0.1-0.3L10.2,14l-0.1-0.2l-0.2-0.2l-0.2-0.2
		l-0.2-0.2l-0.2-0.1l-0.2-0.2l-0.4-0.3l-0.5-0.3L7.8,12l-0.4-0.2L7,11.5l-0.4-0.4l-0.4-0.4l-0.4-0.4l-0.2-0.2L5.3,9.9L5.1,9.6L5,9.3
		L4.8,9L4.6,8.6L4.4,8.2L4.3,7.8L4.1,7.4L4,7L3.9,6.5L3.7,6L3.6,5.5L3.5,4.9L3.5,4.3L3.4,3.7l0-0.7l0-0.7l0-0.8V0.8h16.1v0.8
		l-0.1,0.8l0,0.7l-0.1,0.7l0,0.7L19,4.9L19,5.4L18.8,6l-0.1,0.5L18.6,7l-0.1,0.5l-0.1,0.4l-0.2,0.4L18,8.6l-0.2,0.3l-0.1,0.3
		l-0.2,0.3l-0.2,0.3L17,10.1l-0.2,0.2l-0.4,0.4L16,11.1l-0.4,0.4l-0.4,0.3L14.8,12L14.4,12.3L14.4,12.3L14.4,12.3L14.4,12.3z
		 M2.3,8.4L2.1,8.1L1.8,7.8L1.6,7.4L1.5,7L1.3,6.6L1.2,6.2L1.1,5.8L1,5.3L0.9,4.5l0-0.8V2.9V2.3l0,0l0,0h1.7l0.1,1.2l0.1,1.1l0.2,1
		l0.2,0.9l0.2,0.8L3.5,8l0.3,0.7l0.3,0.6l-0.3,0L3.6,9.2L3.4,9.1L3.1,9L2.9,8.9L2.7,8.8L2.5,8.6L2.3,8.4L2.3,8.4L2.3,8.4L2.3,8.4z
		 M22.4,2.2V2V1.9V1.8l0,0l0-0.1l0-0.1l0,0l0,0l-0.1,0h-0.1h-2l0-0.3V0.9V0.7V0.4V0.3l0,0l0-0.1l0-0.1l0,0l0,0l-0.1,0h-0.1H2.9H2.8
		L2.7,0l0,0l0,0l0,0.1l0,0.1l0,0v0.1v0.3v0.2v0.3v0.3h-2H0.4l0,0l-0.1,0l0,0l0,0.1L0.1,1.8v0l0,0.1v0.2v0.2v0.7v0.8l0,0.4l0,0.5
		l0,0.5l0.1,0.5L0.4,6l0.1,0.5l0.1,0.5l0.2,0.4L1,7.8l0.2,0.4l0.3,0.4l0.3,0.4l0.3,0.3l0.3,0.2l0.3,0.2l0.3,0.2l0.3,0.1L3.8,10
		l0.4,0l0.4,0L5,10.6l0.4,0.5l0.4,0.4l0.4,0.4l0.4,0.3L7,12.4l0.4,0.2l0.4,0.3l0.5,0.3l0.4,0.3l0.2,0.2L9,13.8l0.2,0.1l0.1,0.2
		l0.1,0.1l0.1,0.2l0.1,0.2l0.1,0.2l0,0.2l0,0.3l0,0.3v0.3v0.6l0,0.5l-0.1,0.5l-0.1,0.5l-0.1,0.3l-0.1,0.3l-0.2,0.3L9,19.1l-0.2,0.2
		l-0.2,0.2l-0.3,0.1l-0.3,0.1l-0.3,0.1l-0.3,0l-0.4,0H6.5H6.4l0,0l-0.1,0l0,0l0,0.1l0,0.1l0,0v0.1v1.9v0.1l0,0.1l0,0.1l0,0.1l0,0
		l0.1,0.1l0,0h0.1h9.6h0.1l0.1,0l0.1-0.1l0,0l0-0.1l0-0.1l0-0.1v-0.1v-1.9v-0.1l0,0l0-0.1l0-0.1l0,0l-0.1,0l-0.1,0h-0.1l-0.4,0
		l-0.4,0l-0.4-0.1l-0.3-0.1l-0.3-0.1l-0.3-0.2l-0.2-0.2l-0.2-0.2l-0.2-0.3L13,18.3L12.9,18l-0.1-0.4l-0.1-0.4l0-0.4l0-0.4v-0.5v-0.3
		l0-0.3l0-0.3l0.1-0.2l0.1-0.2l0.1-0.2l0.1-0.2l0.1-0.2l0.2-0.2l0.1-0.2l0.2-0.2l0.2-0.1l0.4-0.3l0.5-0.3l0.4-0.2l0.4-0.2l0.4-0.3
		l0.4-0.3l0.4-0.4l0.4-0.4l0.4-0.5l0.4-0.6l0.4,0l0.4,0l0.3-0.1l0.3-0.1l0.3-0.2l0.3-0.2l0.3-0.2l0.3-0.3l0.1-0.2L21,8.6l0.1-0.2
		l0.1-0.2l0.2-0.4l0.2-0.5l0.2-0.5L22,6.3l0.1-0.5l0.1-0.5l0.1-0.5l0-0.5l0-0.5l0-0.4V2.8V2.2L22.4,2.2L22.4,2.2z"/>
</g>
</svg>
