<?xml version="1.0" encoding="utf-8"?>
<!-- Generator: Adobe Illustrator 19.1.0, SVG Export Plug-In . SVG Version: 6.00 Build 0)  -->
<svg version="1.1" id="Layer_1" xmlns="http://www.w3.org/2000/svg" xmlns:xlink="http://www.w3.org/1999/xlink" x="0px" y="0px"
	 viewBox="0 0 22.6 22.4" style="enable-background:new 0 0 22.6 22.4;" xml:space="preserve">
<g>
	<path d="M1.9,9.6c0,4,3.2,7.2,7.2,7.2c4,0,7.2-3.2,7.2-7.2V9.2H1.9V9.6z M9.1,16.1c-2.9,0-5.3-1.9-6.2-4.4h12.4
		C14.4,14.2,12,16.1,9.1,16.1L9.1,16.1z M15.6,9.9c0,0.4-0.1,0.8-0.2,1.2H2.8c-0.1-0.4-0.2-0.8-0.2-1.2H15.6z M15.6,9.9"/>
	<path d="M14.7,16.8c-0.2-0.4-0.6-0.6-1-0.4c-0.4,0.2-0.6,0.6-0.4,1l1.5,3.4c0.2,0.4,0.6,0.6,1,0.4c0.4-0.2,0.6-0.6,0.4-1L14.7,16.8
		z M14.7,16.8"/>
	<path d="M4.9,16.4c-0.4-0.2-0.9,0-1,0.4l-1.5,3.4c-0.2,0.4,0,0.9,0.4,1c0.4,0.2,0.9,0,1-0.4l1.5-3.4C5.5,17,5.3,16.5,4.9,16.4
		L4.9,16.4z M4.9,16.4"/>
	<path d="M9.3,17.6c-0.4,0-0.7,0.3-0.7,0.7v3.4c0,0.4,0.3,0.7,0.7,0.7c0.4,0,0.7-0.3,0.7-0.7v-3.4C10.1,17.9,9.7,17.6,9.3,17.6
		L9.3,17.6z M9.3,17.6"/>
	<path d="M11.8,6.3c0-0.1,0-0.2-0.1-0.3c-0.1-0.2-0.2-0.4-0.5-0.6h-0.1l0,0.9H9.3V6c0-0.1,0-0.2,0-0.3C9.2,5.5,9.1,5.4,8.9,5.3
		C8.8,5.4,8.7,5.5,8.6,5.6c0,0.1,0,0.2,0,0.3v0.4H6.9c0-0.3-0.1-0.7-0.3-1C6.4,5.6,6.3,6,6.3,6.3H4.8v0.6h1.4c0,0.3,0.1,0.7,0.3,1
		c0.2-0.3,0.3-0.7,0.3-1h1.6v0.7c0.1,0.1,0.2,0.2,0.4,0.3C9,7.8,9.2,7.7,9.3,7.6V6.9h1.9l0,0.9h0.1c0.2-0.2,0.4-0.4,0.5-0.6
		c0-0.1,0.1-0.2,0.1-0.3h10.1V6.3H11.8z M11.8,6.3"/>
	<path d="M8,4.4C8.2,3.4,8.3,2.5,8.8,2C9.1,1.7,9.6,1.6,10,1.6c0.5,0.1,0.9,0.3,1.3,0.5c0.4,0.3,0.8,0.5,1.3,0.7
		c0.5,0.2,1,0.3,1.6,0.1c0.3-0.1,0.5-0.4,0.7-0.7C15,2,15,1.7,15,1.4c0-0.5-0.1-1-0.4-1.4l-0.1,0c0,0.5,0,0.9-0.1,1.4
		c-0.1,0.4-0.3,0.7-0.6,0.8c-0.3,0.1-0.7,0.1-1.1,0c-0.4-0.1-0.8-0.3-1.3-0.4C11,1.6,10.5,1.5,10,1.4C9.6,1.3,9,1.2,8.5,1.5
		C8,1.8,7.8,2.4,7.8,2.9C7.7,3.4,7.8,3.9,8,4.4L8,4.4z M8,4.4"/>
</g>
</svg>
