<?xml version="1.0" encoding="utf-8"?>
<!-- Generator: Adobe Illustrator 19.1.0, SVG Export Plug-In . SVG Version: 6.00 Build 0)  -->
<svg version="1.1" id="Layer_1" xmlns="http://www.w3.org/2000/svg" xmlns:xlink="http://www.w3.org/1999/xlink" x="0px" y="0px"
	 viewBox="0 0 22.6 22.4" style="enable-background:new 0 0 22.6 22.4;" xml:space="preserve">
<path d="M10,5.8H3.3C3.1,5.8,3,5.9,3,6.1v0.2c0,0.2,0.1,0.3,0.3,0.3h2.1L6.2,10c0,0.2,0.2,0.3,0.4,0.3h2c0.2,0,0.4-0.1,0.4-0.4
	l0.7-3.5H10c0.1,0,0.3-0.1,0.3-0.3V6.1C10.3,5.9,10.1,5.8,10,5.8L10,5.8z M6.2,6.5l0.4,0.6L6.2,7.7L5.8,7.1L6.2,6.5L6.2,6.5L6.2,6.5
	z M7.2,6.5l0.4,0.6L7.2,7.7L6.8,7.1L7.2,6.5L7.2,6.5L7.2,6.5z M8.2,6.5l0.4,0.6L8.2,7.7L7.8,7.1L8.2,6.5L8.2,6.5z M8,6.5L7.7,7l0,0
	l0,0L7.3,6.5H8z M7,6.5L6.7,7l0,0l0,0L6.4,6.5H7z M6.7,7.2L6.7,7.2L6.7,7.2l0.4,0.6L6.7,8.5L6.3,7.8L6.7,7.2z M7.2,8l0.4,0.6
	L7.2,9.3L6.8,8.6L7.2,8z M7.3,7.8l0.4-0.6l0,0l0,0l0.4,0.6L7.7,8.5L7.3,7.8z M8.2,8l0.4,0.6L8.1,9.3L7.8,8.7L8.2,8z M8.2,7.8
	l0.4-0.6l0,0l0,0L9,7.9L8.6,8.5L8.2,7.8z M8.6,6.9L8.6,6.9L8.3,6.5h0.6L8.6,6.9L8.6,6.9z M5.7,7L5.6,6.5H6L5.7,7L5.7,7z M5.7,7.3
	l0.4,0.6L6,8.3L5.7,7.3z M6.2,9.3L6,8.5L6.2,8l0.4,0.7L6.2,9.3z M6.6,10.2c-0.1,0-0.2-0.1-0.3-0.2L6.3,9.6L6.6,10.2z M6.3,9.4
	l0.4-0.6l0.4,0.7l-0.4,0.6L6.3,9.4z M6.8,10.2l0.4-0.7l0.4,0.7H6.8z M7.3,9.4l0.4-0.6l0.4,0.7l-0.4,0.6L7.3,9.4z M7.7,10.2l0.4-0.7
	l0.4,0.7H7.7z M8.9,10.1c0,0.1-0.1,0.1-0.2,0.1l0.2-0.4L8.9,10.1z M9,9.4l-0.4,0.6L8.2,9.4l0.4-0.6L9,9.4L9,9.4z M9.1,9.2L8.7,8.6
	L9.1,8l0.1,0.4L9.1,9.2z M9.3,8.1L9.2,7.9l0.1-0.3L9.3,8.1z M9.5,7.1L9.1,7.8L8.7,7.1l0.4-0.6h0.1L9.5,7L9.5,7.1z M9.5,6.8L9.4,6.5
	h0.2L9.5,6.8z M9.5,6.8"/>
<g>
	<path d="M3.2,20.4H2.8C2.4,20.4,2,20,2,19.5v-8.2H1.1c-0.5,0-0.8-0.4-0.8-0.8V2.9c0-0.5,0.4-0.8,0.8-0.8h3.7c0.5,0,0.8,0.4,0.8,0.8
		v2.2H4.2V3.6H1.8v6.4h2.5V7.6h1.5v3c0,0.5-0.4,0.8-0.8,0.8H4v8.2C4,20,3.6,20.4,3.2,20.4z M1.1,2.7C1,2.7,0.9,2.8,0.9,2.9v7.6
		c0,0.1,0.1,0.3,0.3,0.3h1.5v8.7c0,0.1,0.1,0.2,0.2,0.2h0.3c0.1,0,0.2-0.1,0.2-0.2v-8.7h1.5c0.1,0,0.3-0.1,0.3-0.3V8.1H4.8V10
		c0,0.2-0.2,0.4-0.4,0.4H1.6c-0.2,0-0.4-0.2-0.4-0.4V3.4C1.2,3.2,1.4,3,1.6,3h2.7c0.2,0,0.4,0.2,0.4,0.4v1.1h0.3V2.9
		c0-0.1-0.1-0.3-0.3-0.3H1.1z"/>
</g>
<g>
	<path d="M15.1,7.5c-1,0-1.7-0.8-1.7-1.7c0-1,0.8-1.7,1.7-1.7c1,0,1.7,0.8,1.7,1.7C16.8,6.7,16.1,7.5,15.1,7.5z M15.1,4.6
		c-0.6,0-1.2,0.5-1.2,1.2c0,0.6,0.5,1.2,1.2,1.2c0.6,0,1.2-0.5,1.2-1.2C16.3,5.1,15.8,4.6,15.1,4.6z"/>
</g>
<g>
	<path d="M18.4,18.1c-3,0-3.8-3.8-4.2-5.9l0-0.2c-0.2-0.9-0.3-1.8-0.3-2.6c-1.2-0.5-2-1.4-2.9-2.4c-0.3-0.3-0.5-0.6-0.9-1
		C9.9,5.6,9.8,5.2,10,4.8c0.3-0.7,1.2-0.9,1.8-0.4c0.4,0.3,0.7,0.8,1,1.2c0.6,0.7,1.1,1.4,1.9,1.7C15,7.1,15.2,7,15.5,7
		c0.5,0,1.1,0.3,1.4,0.8c0.6,0.4,1.2,0.8,1.8,1.2c0.2,0.2,0.4,0.3,0.6,0.5c0.5,0.4,0.7,1,0.4,1.5c-0.3,0.5-1.1,0.7-1.6,0.4
		c-0.2-0.2-0.4-0.3-0.6-0.5c0,0-0.1,0-0.1-0.1c0.1,0.4,0.2,0.8,0.3,1.2c0.2,0.2,0.8,0.5,2.4,0.5c0.4,0,0.8,0,1.1,0l0.1,0
		c0.7,0,1.1,0.5,1.1,1.1c0,0.5-0.3,1.1-1,1.2c-0.4,0-0.8,0-1.1,0c0,0,0,0,0,0c-1.3,0-2.3-0.2-3.1-0.5c0.3,1,0.8,1.5,1.4,1.5
		c0.7,0,1.1,0.6,1.1,1.1C19.5,17.5,19.1,18.1,18.4,18.1L18.4,18.1z M11,4.6c-0.2,0-0.4,0.2-0.5,0.4c-0.1,0.1-0.1,0.3,0.1,0.6
		c0.3,0.3,0.6,0.7,0.9,1c0.9,1,1.6,1.9,2.8,2.3L14.5,9l0,0.2c0,0.9,0.1,1.8,0.3,2.7l0,0.2c0.4,2,1,5.4,3.6,5.4v0.3l0-0.3
		c0.4,0,0.5-0.4,0.5-0.6c0-0.3-0.1-0.6-0.5-0.6h0c-0.8,0-1.8-0.5-2.2-2.6l-0.1-0.7l0.6,0.4c0.7,0.5,1.8,0.8,3.4,0.8h0
		c0.4,0,0.8,0,1.1,0c0.4,0,0.5-0.3,0.5-0.6c0-0.2-0.1-0.5-0.5-0.5c-0.3,0-0.7,0-1.2,0c-1.5,0-2.5-0.3-2.9-0.8l0-0.1
		c-0.2-0.7-0.4-1.5-0.5-2l-0.1-0.7L17,10c0.2,0.2,0.5,0.3,0.7,0.5c0.2,0.2,0.4,0.3,0.6,0.5c0.2,0.1,0.6,0,0.7-0.2
		c0.2-0.3,0-0.6-0.2-0.8c-0.2-0.2-0.4-0.3-0.6-0.5c-0.6-0.4-1.1-0.9-1.7-1.2l-0.1,0l0-0.1c-0.2-0.3-0.6-0.5-0.9-0.5
		c-0.2,0-0.4,0.1-0.6,0.2l-0.1,0.1l-0.1-0.1c-1-0.4-1.6-1.2-2.3-1.9c-0.3-0.4-0.6-0.8-1-1.1C11.3,4.7,11.2,4.6,11,4.6z"/>
</g>
<path d="M10.2,4c0,0.7-0.6,1.3-1.3,1.3C8.1,5.4,7.5,4.8,7.5,4c0-0.7,0.6-1.3,1.3-1.3C9.6,2.7,10.2,3.3,10.2,4L10.2,4z M10.2,4"/>
</svg>
