<?xml version="1.0" encoding="utf-8"?>
<!-- Generator: Adobe Illustrator 19.1.0, SVG Export Plug-In . SVG Version: 6.00 Build 0)  -->
<svg version="1.1" id="Layer_1" xmlns="http://www.w3.org/2000/svg" xmlns:xlink="http://www.w3.org/1999/xlink" x="0px" y="0px"
	 viewBox="0 0 22.6 22.4" style="enable-background:new 0 0 22.6 22.4;" xml:space="preserve">
<style type="text/css">
	.st0{fill-rule:evenodd;clip-rule:evenodd;}
</style>
<g>
	<polygon class="st0" points="7.6,0 7.6,4.1 8.3,4.1 8.3,0.7 21.8,0.7 21.8,8.2 18.6,8.2 15.8,11.4 15.8,8.2 13.5,8.2 13.5,9 
		15.1,9 15.1,13.3 19,9 22.6,9 22.6,0 7.6,0 7.6,0 	"/>
	<polygon class="st0" points="12.8,4.4 13.6,4.4 13.6,5.2 12.8,5.2 12.8,4.4 	"/>
	<polygon class="st0" points="15,4.4 15.8,4.4 15.8,5.2 15,5.2 15,4.4 	"/>
	<polygon class="st0" points="17.3,4.4 18,4.4 18,5.2 17.3,5.2 17.3,4.4 	"/>
	<path class="st0" d="M14.2,21.7H0.8v-1.8L1,19.7l0.3-0.2l0.5-0.3l0.6-0.3l0.7-0.4L4,18l0.9-0.4l0.9-0.4l0.1,0L6,17.1L6,17l0-0.1V15
		l0-0.2l0-0.1l-0.1-0.1l-0.1-0.1h0l-0.1-0.1l-0.1-0.1l-0.1-0.1L5.2,14l-0.1-0.3l0-0.2l0-0.2V13l0-0.3v0l0-0.1l0,0l0-0.1l-0.1,0l0,0
		H4.7l-0.1,0H4.6l-0.1,0l0-0.1l-0.1-0.1l-0.1-0.2v-0.2v-0.2l0.1-0.2l0.1-0.1l0,0l0.1,0h0.1l0.1,0h0.1l0,0L4.9,11l0-0.1l0,0l0-0.1v0
		v-0.1l0-0.1l-0.1-0.1l-0.1-0.2L4.7,9.9L4.5,9.4L4.5,9.2l0-0.2V8.9l0-0.1l0-0.1h0.1h0.2L5,8.8h0.1l0.2-0.1l0.1,0l0,0l0,0l0,0l0-0.2
		l0.1-0.1l0.1-0.1L5.7,8l0.1-0.1L6,7.8l0.2-0.1l0.2-0.1l0.3-0.1l0.4-0.1l0.4,0l0.4,0l0.4,0l0.4,0l0.4,0.1l0.3,0.1l0.2,0.1l0.1,0.1
		l0.1,0.1L10,8l0.1,0.1l0.1,0.1l0.1,0.1l0.1,0.2l0,0.3V9l0,0.3l0,0.2L10.2,10L10,10.3l-0.1,0.2l0,0.2v0l0,0.1l0,0l0,0.1l0.1,0.1l0,0
		h0.1l0.1,0h0l0,0l0,0.1l0.1,0.1l0,0.2v0.1l0,0.1l0,0.1l-0.1,0.2l-0.1,0.1l-0.1,0h-0.1l0,0l-0.1,0l0,0.1l0,0l0,0.1v0l0,0.6l-0.1,0.4
		L9.7,14l-0.1,0.3l-0.2,0.3l-0.1,0l-0.1,0.1l-0.1,0.1l0,0.1L9,15v1.9V17l0,0.1l0.1,0.1l0.1,0l0.9,0.4L11,18l0.8,0.4l0.8,0.4l0.6,0.3
		l0.5,0.3l0.4,0.2l0.2,0.2V21.7L14.2,21.7L14.2,21.7z M13.1,18.2l-0.8-0.4l-0.8-0.4L10.6,17l-0.8-0.4v-1.4l0.1-0.1l0.1-0.1l0.2-0.2
		l0.1-0.2l0.1-0.3l0.1-0.3l0.1-0.4l0-0.5l0.1-0.1l0.1-0.1l0.1-0.2l0.1-0.2l0.1-0.2l0-0.2l0-0.2v-0.2v-0.2l0-0.1l-0.1-0.1l0-0.1
		l0-0.1l-0.1-0.1l-0.1-0.1l-0.1-0.1l0.2-0.4l0.2-0.5l0-0.3l0-0.3l0-0.3l0-0.3L11,8.1l-0.1-0.2l-0.1-0.2l-0.1-0.2l-0.2-0.1l-0.2-0.1
		L10,7.1L9.8,7L9.6,6.9L9.3,6.8L9.1,6.7L8.8,6.7l-0.5,0l-0.5,0l-0.4,0L7,6.7L6.5,6.8L6.1,6.9L5.8,7L5.7,7.1L5.5,7.2L5.3,7.3L5.2,7.5
		L5,7.6L4.9,7.8L4.8,8l-0.2,0L4.4,8L4.2,8l-0.1,0L4.1,8.1L3.9,8.2L3.9,8.3L3.8,8.3L3.8,8.5l0,0.1l0,0.1l0,0.1v0.3l0,0.3L3.9,10
		l0.2,0.5l0,0l0,0l-0.1,0.1L4,10.6l-0.1,0.1l-0.1,0.1L3.7,11l-0.1,0.2l0,0.2v0.2v0.2l0,0.2l0.1,0.2l0.1,0.2l0.1,0.2L4,12.8l0.2,0.1
		L4.3,13l0,0.5l0.1,0.4l0.1,0.3l0.1,0.3l0.2,0.2L5,15l0.1,0.1l0.2,0.1v1.4L4.4,17l-0.9,0.4l-0.9,0.4l-0.8,0.4l-0.7,0.4l-0.5,0.3
		l-0.3,0.3l-0.2,0.2l-0.2,0.2L0,19.6l0,0.1v0.1v2.2v0.1l0,0.1l0,0l0,0l0.1,0l0.1,0l0.1,0h0.1h14.2h0.1l0.1,0l0.1,0l0,0l0,0l0,0
		l0-0.1v-0.1v-2.2v-0.1l0-0.1l-0.1-0.1l-0.1-0.2l-0.2-0.2l-0.3-0.3l-0.5-0.3L13.1,18.2L13.1,18.2L13.1,18.2z"/>
</g>
</svg>
