<?xml version="1.0" encoding="utf-8"?>
<!-- Generator: Adobe Illustrator 19.1.0, SVG Export Plug-In . SVG Version: 6.00 Build 0)  -->
<svg version="1.1" id="Layer_1" xmlns="http://www.w3.org/2000/svg" xmlns:xlink="http://www.w3.org/1999/xlink" x="0px" y="0px"
	 viewBox="0 0 22.6 22.4" style="enable-background:new 0 0 22.6 22.4;" xml:space="preserve">
<path d="M22.1,3.7H0.5c0,0,0,0,0,0c0,0,0,0,0,0c0,0,0,0,0,0c0,0,0,0,0,0c0,0,0,0,0,0c0,0,0,0,0,0c0,0,0,0,0,0l0,0l0,0c0,0,0,0,0,0
	c0,0,0,0,0,0c0,0,0,0,0,0c0,0,0,0,0,0c0,0,0,0,0,0l0,0c0,0,0,0,0,0c0,0,0,0,0,0c0,0,0,0,0,0c0,0,0,0,0,0c0,0,0,0,0,0c0,0,0,0,0,0
	c0,0,0,0,0,0l0,0c0,0,0,0,0,0c0,0,0,0,0,0c0,0,0,0,0,0c0,0,0,0,0,0c0,0,0,0,0,0s0,0,0,0c0,0,0,0,0,0v12.7c0,0.1,0.1,0.3,0.2,0.3
	c0.1,0.1,0.3,0,0.4,0l2-1.7h0.8c0-0.1,0-0.2,0.1-0.3c0-0.1,0-0.2,0.1-0.3c0,0,0-0.1,0-0.1H2.9c0-0.3,0-0.6,0-0.9l0.4-0.4L4,13.9
	c0.1-0.2,0.2-0.4,0.4-0.6l-0.6-0.6l0.8-0.8l0.6,0.6c0.2-0.1,0.4-0.3,0.6-0.4l-0.7-0.7l0.9-0.9l0.9,0.9l-0.5,0.5
	c0.3-0.1,0.5-0.1,0.8-0.2c0.1,0,0.2,0,0.3,0h0c0.2,0,0.4,0,0.6,0l-0.4-0.4l0.9-0.9l0.9,0.9L8.9,12c0.2,0.1,0.4,0.2,0.6,0.3l0.4-0.4
	l0.9,0.9l-0.3,0.3c0.2,0.2,0.3,0.4,0.4,0.6l0.4-0.4l0.9,0.9l-0.4,0.4h-0.5c0,0.1,0.1,0.3,0.1,0.4l0,0.1c0,0.1,0,0.1,0,0.2h8.4l2,1.7
	c0.1,0.1,0.1,0.1,0.2,0.1c0,0,0.1,0,0.1,0c0.1-0.1,0.2-0.2,0.2-0.3V4C22.4,3.8,22.3,3.7,22.1,3.7L22.1,3.7z M19.6,14.5h-0.8
	l-0.4-0.4l0.9-0.9l0.4,0.4C19.6,13.9,19.6,14.2,19.6,14.5L19.6,14.5z M13.1,14.1l0.9-0.9l0.9,0.9l-0.4,0.4h-1L13.1,14.1z M5,4.3
	l0.4,0.4L4.6,5.6L3.7,4.8l0.4-0.4H5z M7.7,4.3l0.4,0.4L7.3,5.6L6.4,4.8l0.4-0.4H7.7z M10.4,4.3l0.4,0.4L9.9,5.6L9.1,4.8l0.4-0.4
	H10.4z M13.1,4.3l0.4,0.4l-0.9,0.9l-0.9-0.9l0.4-0.4H13.1z M15.7,4.3l0.4,0.4l-0.9,0.9l-0.9-0.9l0.4-0.4L15.7,4.3z M18.4,4.3
	l0.4,0.4L18,5.6l-0.9-0.9l0.4-0.4L18.4,4.3z M11.3,7l-0.9-0.9l0.9-0.9l0.9,0.9L11.3,7z M12.6,6.6l0.9,0.9l-0.9,0.9l-0.9-0.9
	L12.6,6.6z M20,9l-0.7,0.7l-0.9-0.9l0.9-0.9L20,8.6C20,8.7,20,8.9,20,9L20,9z M16.6,9.6l-0.9-0.9l0.9-0.9l0.9,0.9L16.6,9.6z M18,9.3
	l0.9,0.9L18,11l-0.9-0.9L18,9.3z M18,8.3l-0.9-0.9L18,6.6l0.9,0.9L18,8.3z M16.6,7l-0.9-0.9l0.9-0.9l0.9,0.9L16.6,7z M16.2,7.4
	l-0.9,0.9l-0.9-0.9l0.9-0.9L16.2,7.4z M14,7l-0.9-0.9L14,5.2l0.9,0.9L14,7z M14,7.9l0.9,0.9L14,9.6l-0.9-0.9L14,7.9z M15.3,9.3
	l0.9,0.9L15.3,11l-0.9-0.9L15.3,9.3z M15.8,11.5l0.9-0.9l0.9,0.9l-0.9,0.9L15.8,11.5z M16.2,12.8l-0.9,0.9l-0.9-0.9l0.9-0.9
	L16.2,12.8z M18,11.9l0.8,0.8l-0.9,0.9l-0.8-0.8L18,11.9z M18.5,11.5l0.9-0.9l0.4,0.4c0,0.3,0,0.5-0.1,0.8l-0.4,0.4L18.5,11.5z
	 M19.8,7.4l0.6-0.6c-0.1,0.3-0.2,0.6-0.2,1L19.8,7.4z M19.3,7l-0.9-0.9l0.9-0.9l0.9,0.9L19.3,7z M9.5,6.1L8.6,7L7.7,6.1l0.9-0.9
	L9.5,6.1z M6.8,6.1L5.9,7L5.1,6.1l0.9-0.9L6.8,6.1z M2.2,6.8l0.6,0.6L2.4,7.8C2.3,7.5,2.2,7.1,2.2,6.8L2.2,6.8z M2.4,6.1l0.9-0.9
	l0.9,0.9L3.2,7L2.4,6.1z M2.8,4.8L1.9,5.6L1.7,5.4C1.5,4.9,1.3,4.6,1.2,4.3h1.2L2.8,4.8z M2.6,9c0-0.1,0-0.2,0-0.3l0.7-0.7l0.9,0.9
	L3.2,9.6L2.6,9z M3.7,7.4l0.9-0.9l0.9,0.9L4.6,8.3L3.7,7.4z M5.9,7.9l0.9,0.9L5.9,9.6L5.1,8.8L5.9,7.9z M6.4,7.4l0.9-0.9l0.9,0.9
	L7.3,8.3L6.4,7.4z M8.6,7.9l0.9,0.9L8.6,9.6L7.7,8.8L8.6,7.9z M9.1,7.4l0.9-0.9l0.9,0.9L9.9,8.3L9.1,7.4z M11.3,7.9l0.9,0.9
	l-0.9,0.9l-0.9-0.9L11.3,7.9z M12.6,9.3l0.9,0.9L12.6,11l-0.9-0.9L12.6,9.3z M14,10.6l0.9,0.9L14,12.3l-0.9-0.9L14,10.6z M15.8,14.1
	l0.9-0.9l0.8,0.8L17,14.5h-0.9L15.8,14.1z M20.8,5.4l-0.2,0.2l-0.9-0.9l0.4-0.4h1.2c-0.1,0.1-0.1,0.2-0.2,0.3
	C21.1,4.9,21,5.1,20.8,5.4L20.8,5.4z M0.8,15.9V5.1c0.1,0.2,0.3,0.6,0.4,1c0.8,2.5,1,6,1,8.6L0.8,15.9z M3.3,12.3l-0.4-0.4
	c0-0.3,0-0.5-0.1-0.8l0.4-0.4l0.9,0.9L3.3,12.3z M4.6,11l-0.9-0.9l0.9-0.9l0.9,0.9L4.6,11z M7.3,11l-0.9-0.9l0.9-0.9l0.9,0.9L7.3,11
	z M9.1,10.1l0.9-0.9l0.9,0.9L9.9,11L9.1,10.1z M10.4,11.5l0.9-0.9l0.9,0.9l-0.9,0.9L10.4,11.5z M11.8,12.8l0.9-0.9l0.9,0.9l-0.9,0.9
	L11.8,12.8z M21.7,15.9l-1.4-1.2c0-2.5,0.2-6,1-8.5c0.2-0.5,0.3-0.8,0.4-1.1V15.9z M21.7,15.9"/>
<path d="M10.2,15.4c0-0.2-0.1-0.3-0.2-0.5c0-0.1-0.1-0.2-0.2-0.3c0,0,0,0,0-0.1c-0.1-0.2-0.2-0.3-0.4-0.5c-0.2-0.3-0.5-0.5-0.9-0.7
	c0,0-0.1,0-0.1,0c-0.2-0.1-0.4-0.2-0.7-0.3c-0.2-0.1-0.4-0.1-0.6-0.1c-0.1,0-0.2,0-0.3,0c-0.3,0-0.5,0-0.8,0.1
	c-0.2,0-0.3,0.1-0.4,0.1c-0.2,0.1-0.4,0.2-0.6,0.3c-0.3,0.2-0.6,0.5-0.8,0.8c-0.1,0.2-0.3,0.4-0.4,0.6c0,0,0,0.1-0.1,0.1
	c0,0.1-0.1,0.2-0.1,0.4c0,0.1-0.1,0.2-0.1,0.3c0,0.2-0.1,0.4-0.1,0.6c0,1.9,1.5,3.3,3.3,3.3c1.9,0,3.4-1.5,3.4-3.4
	c0-0.2,0-0.4-0.1-0.6C10.3,15.6,10.3,15.5,10.2,15.4L10.2,15.4z M9.7,16.2c0,0.6-0.2,1.1-0.5,1.5l-0.8,0.1c0,0-0.1,0-0.1,0.1
	l-0.3,0.8c-0.3,0.1-0.6,0.2-0.9,0.2c-0.3,0-0.6-0.1-0.9-0.2L5.7,18c0,0-0.1-0.1-0.1-0.1l-0.8-0.1c-0.3-0.4-0.5-1-0.5-1.5v0l0.6-0.6
	l0,0c0,0,0.1-0.1,0-0.1l0-0.2L4.9,15l0-0.2l0-0.1c0.1-0.1,0.2-0.2,0.3-0.3c0.2-0.2,0.3-0.3,0.5-0.4c0.2-0.1,0.4-0.2,0.6-0.2l0.4,0.2
	l0.3,0.2l0.1,0c0,0,0.1,0,0.1,0l0.7-0.4c0.1,0,0.2,0.1,0.3,0.1c0.1,0,0.1,0.1,0.2,0.1c0.2,0.1,0.4,0.3,0.6,0.5
	C8.9,14.4,9,14.5,9,14.5c0,0,0.1,0.1,0.1,0.1l0,0.1l0,0.2L9,15.4l0,0.1c0,0,0,0.1,0,0.1l0,0L9.7,16.2C9.7,16.2,9.7,16.2,9.7,16.2
	L9.7,16.2z M9.7,16.2"/>
<path d="M8.2,15.8L8,15.7l-0.4-0.3L7.1,15l0,0c0,0-0.1,0-0.1,0c0,0,0,0,0,0l0,0l-0.1,0.1l-0.4,0.3L6,15.7l-0.2,0.1
	c0,0-0.1,0.1,0,0.1l0.4,1.4c0,0,0.1,0.1,0.1,0.1h1.4c0,0,0.1,0,0.1-0.1l0.4-1.4C8.3,15.9,8.3,15.8,8.2,15.8L8.2,15.8z M8.2,15.8"/>
</svg>
