<?xml version="1.0" encoding="utf-8"?>
<!-- Generator: Adobe Illustrator 19.1.0, SVG Export Plug-In . SVG Version: 6.00 Build 0)  -->
<svg version="1.1" id="Layer_1" xmlns="http://www.w3.org/2000/svg" xmlns:xlink="http://www.w3.org/1999/xlink" x="0px" y="0px"
	 viewBox="0 0 22.6 22.4" style="enable-background:new 0 0 22.6 22.4;" xml:space="preserve">
<g>
	<path d="M7.4,10.6l0.9,0.8L9,10.7v4.9h1.2V9L9.1,8.6L7.4,10.6z M7.4,10.6"/>
	<path d="M11.2,10.6l0.9,0.8l0.7-0.8v4.9h1.2V9L13,8.6L11.2,10.6z M11.2,10.6"/>
	<path d="M19,8.2c-1.1-1-1.8-2.7-1.8-4.6c0-0.7,0.1-1.4,0.3-2c0.1-0.3-0.1-0.6-0.3-0.7l-1.6-0.7c-0.2-0.1-0.4-0.1-0.6,0
		c-0.2,0.1-0.3,0.3-0.3,0.5C14.7,2.6,13.2,4,11.3,4S7.9,2.6,7.8,0.7c0-0.2-0.1-0.4-0.3-0.5C7.4,0.1,7.1,0.1,7,0.2L5.4,0.9
		C5.1,1,5,1.3,5.1,1.6c0.2,0.6,0.3,1.3,0.3,2c0,1.9-0.7,3.6-1.8,4.6C3.4,8.3,3.4,8.5,3.4,8.7v11.4c0,0.2,0.1,0.5,0.4,0.6
		c2.3,1.1,5,1.7,7.6,1.7s5.2-0.6,7.6-1.7c0.2-0.1,0.4-0.3,0.4-0.6V8.7C19.2,8.5,19.1,8.3,19,8.2L19,8.2z M18,19.7
		c-2.1,0.9-4.4,1.4-6.7,1.4c-2.3,0-4.6-0.5-6.7-1.4V8.9c1.2-1.3,2-3.2,2-5.3c0-0.6-0.1-1.3-0.2-1.9l0.4-0.2C7.2,3.7,9,5.3,11.3,5.3
		s4.1-1.5,4.6-3.6l0.4,0.2C16.1,2.4,16,3,16,3.6c0,2.1,0.7,4,2,5.3V19.7z M18,19.7"/>
</g>
</svg>
