<?xml version="1.0" encoding="utf-8"?>
<!-- Generator: Adobe Illustrator 19.1.0, SVG Export Plug-In . SVG Version: 6.00 Build 0)  -->
<svg version="1.1" id="Layer_1" xmlns="http://www.w3.org/2000/svg" xmlns:xlink="http://www.w3.org/1999/xlink" x="0px" y="0px"
	 viewBox="0 0 22.6 22.4" style="enable-background:new 0 0 22.6 22.4;" xml:space="preserve">
<style type="text/css">
	.st0{fill-rule:evenodd;clip-rule:evenodd;}
</style>
<g>
	<path class="st0" d="M20.1,15.3l-1.8-1.8l1.3-1.3l1.8,1.8L20.1,15.3L20.1,15.3L20.1,15.3z M12.9,19.2l1.4,1.4l-2,0.6L12.9,19.2
		L12.9,19.2L12.9,19.2z M15.1,20.2l-1.8-1.7l4.5-4.4l1.8,1.7L15.1,20.2L15.1,20.2L15.1,20.2z M22.2,13.7l-2.3-2.3l-0.1,0l-0.1,0l0,0
		h-0.1h0l-0.1,0l-0.1,0l-0.1,0l-6.8,6.8l0,0l0,0.1h0l0,0l-1,3.2v0.1v0.1l0,0.1l0.1,0.1l0,0l0,0l0.1,0h0.1h0h0l3.3-0.9l0,0h0v0h0l0,0
		l0,0l6.9-6.8l0,0l0,0v-0.1l0-0.1l0-0.1v-0.1L22.2,13.7L22.2,13.7L22.2,13.7L22.2,13.7z"/>
	<path class="st0" d="M4.8,2.6h1.5h0.1l0.1,0l0.1,0l0,0l0,0l0-0.1l0-0.1V2.2V2.1l0-0.1l0-0.1l0-0.1l0-0.1l0.1-0.1L7,1.5l0.1,0
		l0.2-0.1l0.2-0.1l0.3,0l0.3,0l0.3,0l0.3,0L9,1.3l0.2,0.1l0.1,0l0.1,0.1l0.1,0.1l0,0.1l0,0.1l0,0.1v0.1l0,0.1v0.1l0,0.1l0,0.1l0,0
		l0,0l0.1,0l0.1,0H10h1.4v3.6H4.8V2.6L4.8,2.6L4.8,2.6z M9.5,19.2H2.3l-0.3,0l-0.2,0l-0.2-0.1L1.5,19l-0.1-0.2l-0.1-0.2l0-0.2v-0.3
		V4h2.9v0.7H2.3l-0.1,0l-0.1,0l0,0L2,4.9l0,0L2,5l0,0.1v0v13v0.1l0,0l0,0.1l0,0l0.1,0l0,0h0.1l0.1,0h6.8l0.1,0h0.1l0,0l0,0l0,0
		l0-0.1l0,0v-0.1V18l0-0.1l0,0l0,0l0,0l0,0l-0.1,0H9.1H2.7V5.5h1.4v1.1v0.1l0,0l0,0.1l0,0.1l0,0l0.1,0h0l0.1,0h7.3l0.1,0h0l0.1,0
		l0,0l0-0.1l0.1-0.1v0l0-0.1V5.5h1.4v3.6v0.1l0,0l0,0.1l0,0l0,0.1l0,0l0.1,0h0.1H14l0,0l0.1,0l0-0.1l0,0l0,0l0-0.1V9.1v-4v0l0-0.1
		l0-0.1l0,0l0,0l-0.1,0l0,0l-0.1,0h-1.8V4H15v5v0.1l0,0l0,0.1l0,0l0,0l0.1,0h0l0.1,0l0.1,0h0.1l0,0l0,0l0,0l0-0.1l0,0V9V3.7v0l0-0.1
		l0-0.1l0,0l0,0l0,0h-0.1l-0.1,0h-3.2V2.2l0-0.1v0l-0.1,0L12,2l0,0l-0.1,0l0,0h-0.1h-1.4l0-0.2l-0.1-0.3l0-0.1L10,1.2L9.9,1.1L9.8,1
		L9.7,0.9L9.5,0.8L9.3,0.7L9.2,0.6L8.9,0.5l-0.2,0l-0.2,0H8.2H7.9l-0.3,0l-0.2,0L7.1,0.6L7,0.7L6.8,0.8L6.6,0.9L6.5,1L6.4,1.1
		L6.3,1.2L6.2,1.3L6.2,1.4L6.1,1.7L6,1.9H4.5H4.4l0,0L4.3,2l0,0l0,0.1l0,0l0,0v0.1v1.1H0.8l-0.1,0H0.7l0,0l-0.1,0l0,0l0,0.1l0,0.1v0
		v14.4v0.2l0,0.2l0,0.2l0,0.2l0.1,0.1l0.1,0.1l0.1,0.1l0.1,0.1l0.1,0.1l0.1,0.1l0.1,0.1l0.2,0.1l0.2,0l0.2,0l0.2,0h0.2h7.2h0.1l0,0
		l0.1,0l0,0l0.1,0l0,0l0-0.1v-0.1v-0.1l0,0l0-0.1l-0.1,0l0,0l-0.1,0L9.5,19.2L9.5,19.2L9.5,19.2L9.5,19.2z"/>
	<polygon class="st0" points="10,8.4 5.5,8.4 5.4,8.4 5.3,8.4 5.2,8.4 5.2,8.5 5.1,8.5 5.1,8.6 5.1,8.7 5.1,8.7 5.1,8.8 5.1,8.9 
		5.1,8.9 5.2,9 5.2,9 5.3,9.1 5.4,9.1 5.5,9.1 10,9.1 10.1,9.1 10.2,9.1 10.2,9 10.3,9 10.3,8.9 10.4,8.9 10.4,8.8 10.4,8.7 
		10.4,8.7 10.4,8.6 10.3,8.5 10.3,8.5 10.2,8.4 10.2,8.4 10.1,8.4 10,8.4 10,8.4 	"/>
	<polygon class="st0" points="10,10.5 5.5,10.5 5.4,10.5 5.3,10.5 5.2,10.5 5.2,10.6 5.1,10.6 5.1,10.7 5.1,10.8 5.1,10.9 5.1,11 
		5.1,11 5.1,11.1 5.2,11.1 5.2,11.2 5.3,11.3 5.4,11.3 5.5,11.3 10,11.3 10.1,11.3 10.2,11.3 10.2,11.2 10.3,11.1 10.3,11.1 
		10.4,11 10.4,11 10.4,10.9 10.4,10.8 10.4,10.7 10.3,10.6 10.3,10.6 10.2,10.5 10.2,10.5 10.1,10.5 10,10.5 10,10.5 	"/>
	<polygon class="st0" points="10,12.7 5.5,12.7 5.4,12.7 5.3,12.7 5.2,12.7 5.2,12.8 5.1,12.8 5.1,12.9 5.1,12.9 5.1,13 5.1,13.1 
		5.1,13.1 5.1,13.2 5.2,13.2 5.2,13.3 5.3,13.3 5.4,13.4 5.5,13.4 10,13.4 10.1,13.4 10.2,13.3 10.2,13.3 10.3,13.2 10.3,13.2 
		10.4,13.1 10.4,13.1 10.4,13 10.4,12.9 10.4,12.9 10.3,12.8 10.3,12.8 10.2,12.7 10.2,12.7 10.1,12.7 10,12.7 10,12.7 	"/>
	<polygon class="st0" points="8.2,15.5 8.3,15.5 8.3,15.5 8.4,15.5 8.5,15.5 8.5,15.4 8.5,15.4 8.6,15.3 8.6,15.2 8.6,15.1 
		8.5,15.1 8.5,15 8.5,15 8.4,14.9 8.3,14.9 8.3,14.9 8.2,14.9 5.5,14.9 5.4,14.9 5.3,14.9 5.2,14.9 5.2,15 5.1,15 5.1,15.1 
		5.1,15.1 5.1,15.2 5.1,15.3 5.1,15.4 5.1,15.4 5.2,15.5 5.2,15.5 5.3,15.5 5.4,15.5 5.5,15.5 8.2,15.5 8.2,15.5 	"/>
</g>
</svg>
