<?xml version="1.0" encoding="utf-8"?>
<!-- Generator: Adobe Illustrator 19.1.0, SVG Export Plug-In . SVG Version: 6.00 Build 0)  -->
<svg version="1.1" id="Layer_1" xmlns="http://www.w3.org/2000/svg" xmlns:xlink="http://www.w3.org/1999/xlink" x="0px" y="0px"
	 viewBox="0 0 22.6 22.4" style="enable-background:new 0 0 22.6 22.4;" xml:space="preserve">
<style type="text/css">
	.st0{fill-rule:evenodd;clip-rule:evenodd;}
</style>
<g>
	<path class="st0" d="M21.4,6.8v0.3l0,0.3l0,0.3L21.2,8l-0.1,0.3L21,8.6l-0.1,0.2l-0.1,0.3l-0.1,0.3l-0.2,0.3L20.3,10l-0.2,0.3
		l-0.4,0.5l-0.4,0.5l-3.6,3.6L7.7,6.7l3.6-3.6l0.3-0.2l0.3-0.2L12,2.5l0.3-0.2l0.3-0.2l0.3-0.2l0.3-0.2l0.3-0.1l0.3-0.1l0.3-0.1
		l0.3-0.1l0.3-0.1L15,1.2l0.3,0l0.3,0l0.3,0l0.6,0l0.6,0.1l0.5,0.2l0.5,0.1l0.5,0.3L19,2l0.4,0.3l0.4,0.4L20,2.9l0.2,0.2l0.2,0.2
		l0.2,0.2l0.2,0.2L20.8,4l0.1,0.3L21,4.5l0.1,0.3l0.1,0.2l0.1,0.3l0,0.3l0,0.3l0,0.3v0.3L21.4,6.8L21.4,6.8L21.4,6.8z M11.3,19.3
		l-0.3,0.2l-0.3,0.2L10.5,20l-0.2,0.2L10,20.4l-0.3,0.2l-0.3,0.1l-0.3,0.1l-0.3,0.2L8.5,21l-0.3,0.1l-0.3,0.1l-0.3,0.1l-0.3,0H6.9
		l-0.3,0l-0.6,0l-0.6-0.1L5,21.1l-0.5-0.2l-0.3-0.1L4,20.7l-0.2-0.1l-0.3-0.2l-0.2-0.1l-0.2-0.2L2.9,20l-0.2-0.2l-0.2-0.2l-0.2-0.2
		l-0.2-0.2L2,18.9l-0.1-0.2l-0.1-0.2l-0.2-0.3l-0.1-0.2l-0.1-0.3l-0.1-0.3l-0.1-0.2l0-0.3l0-0.3l0-0.3v-0.3v-0.3l0-0.3l0-0.3l0-0.3
		l0.1-0.3l0.1-0.3l0.1-0.3l0.1-0.3l0.1-0.3L1.9,13L2,12.7l0.2-0.2l0.2-0.3l0.2-0.2l0.2-0.2L3,11.4l0.2-0.2l4-4l8.1,8.1L11.3,19.3
		L11.3,19.3L11.3,19.3z M20.4,2.1l-0.2-0.2l-0.2-0.2l-0.2-0.2l-0.3-0.2l-0.2-0.2l-0.3-0.1L18.7,1l-0.3-0.2l-0.3-0.1l-0.3-0.1
		l-0.3-0.1l-0.3,0l-0.3-0.1l-0.3,0h-0.3l-0.3,0l-0.3,0l-0.4,0l-0.4,0l-0.3,0.1l-0.4,0.1l-0.4,0.1l-0.3,0.1L13.2,1l-0.3,0.1l-0.3,0.2
		l-0.3,0.2l-0.3,0.2l-0.3,0.2l-0.3,0.2L11,2.4l-0.3,0.2l-8.1,8.1L2.4,11l-0.2,0.2l-0.2,0.3l-0.2,0.3l-0.2,0.3l-0.2,0.3l-0.2,0.3
		L1.1,13l-0.1,0.3l-0.1,0.3L0.7,14l-0.1,0.3l-0.1,0.3l0,0.4l-0.1,0.3l0,0.3v0.3v0.3l0,0.3l0.1,0.3l0,0.3l0.1,0.3l0.1,0.3l0.1,0.3
		l0.1,0.3l0.1,0.3L1.2,19l0.2,0.3l0.2,0.3l0.2,0.3l0.2,0.2l0.2,0.2l0.2,0.2l0.3,0.2l0.2,0.2l0.2,0.2l0.2,0.1l0.3,0.2l0.2,0.1
		l0.3,0.1l0.3,0.1l0.3,0.1L5,21.9L5.3,22l0.3,0L6,22.1l0.3,0h0.3l0.4,0l0.4,0l0.4,0L8,21.9l0.4-0.1l0.4-0.1l0.4-0.1l0.4-0.2l0.3-0.1
		l0.3-0.2l0.3-0.2l0.3-0.2l0.3-0.2l0.3-0.2l0.3-0.2l0.3-0.3l8.1-8.1l0.2-0.3l0.2-0.2l0.2-0.3l0.2-0.3l0.2-0.3l0.2-0.3l0.2-0.3
		l0.1-0.3l0.2-0.3l0.1-0.3l0.1-0.3l0.1-0.3L22,7.9l0-0.3l0-0.3V6.9l0-0.3V6.2l0-0.3l0-0.4l0-0.3l-0.1-0.3l-0.1-0.3l-0.1-0.3L21.6,4
		l-0.2-0.3l-0.1-0.3l-0.2-0.3L21,2.9l-0.2-0.3l-0.2-0.2L20.4,2.1L20.4,2.1L20.4,2.1z"/>
	<polygon class="st0" points="12.5,3.7 10.3,6.1 10.2,6.1 10.2,6.2 10.2,6.3 10.1,6.4 10.2,6.4 10.2,6.5 10.2,6.5 10.3,6.6 
		10.3,6.7 10.4,6.7 10.4,6.7 10.5,6.7 10.6,6.7 10.7,6.7 10.7,6.7 10.8,6.6 13.1,4.3 13.3,4.1 13.6,3.9 13.9,3.7 14.2,3.5 14.5,3.4 
		14.8,3.3 15.1,3.3 15.4,3.3 15.7,3.3 16,3.3 16.4,3.4 16.7,3.5 17,3.7 17.2,3.9 17.5,4.1 17.8,4.3 17.8,4.4 17.9,4.4 18,4.4 
		18,4.4 18.1,4.4 18.2,4.4 18.3,4.4 18.3,4.3 18.4,4.2 18.4,4.2 18.4,4.1 18.4,4.1 18.4,4 18.4,3.9 18.4,3.8 18.3,3.7 18,3.5 
		17.7,3.2 17.3,3 16.9,2.8 16.6,2.7 16.2,2.6 15.8,2.5 15.4,2.5 15,2.5 14.6,2.6 14.2,2.7 13.9,2.8 13.5,3 13.2,3.2 12.8,3.5 
		12.5,3.7 12.5,3.7 	"/>
</g>
</svg>
