<?xml version="1.0" encoding="utf-8"?>
<!-- Generator: Adobe Illustrator 19.1.0, SVG Export Plug-In . SVG Version: 6.00 Build 0)  -->
<svg version="1.1" id="Layer_1" xmlns="http://www.w3.org/2000/svg" xmlns:xlink="http://www.w3.org/1999/xlink" x="0px" y="0px"
	 viewBox="0 0 22.6 22.4" style="enable-background:new 0 0 22.6 22.4;" xml:space="preserve">
<style type="text/css">
	.st0{fill-rule:evenodd;clip-rule:evenodd;}
</style>
<g>
	<polygon class="st0" points="6.9,13.2 7,13.1 7.1,13.1 7.1,13 7.1,13 7.1,12.9 7.2,12.8 7.1,12.7 7.1,12.7 7,12.3 6.8,11.8 
		6.7,11.4 6.6,10.9 6.5,10.4 6.5,9.9 6.4,9.5 6.4,9 16.2,9 16.1,9.5 16.1,9.9 16,10.4 16,10.9 15.9,11.4 15.7,11.8 15.6,12.3 
		15.4,12.7 15.4,12.7 15.4,12.8 15.4,12.9 15.4,13 15.5,13 15.5,13.1 15.6,13.1 15.7,13.2 15.7,13.2 15.8,13.2 15.9,13.2 16,13.1 
		16.1,13.1 16.1,13 16.4,12.4 16.5,11.9 16.7,11.3 16.8,10.8 16.8,10.2 16.9,9.6 16.9,9.1 16.9,8.7 16.9,8.6 16.9,8.5 16.9,8.5 
		16.8,8.4 16.8,8.3 16.7,8.3 16.6,8.3 16.5,8.3 6,8.3 6,8.3 5.9,8.3 5.8,8.3 5.8,8.4 5.7,8.5 5.7,8.5 5.7,8.6 5.6,8.7 5.7,9.1 
		5.7,9.6 5.7,10.2 5.8,10.8 5.9,11.3 6.1,11.9 6.2,12.4 6.4,13 6.5,13 6.5,13.1 6.6,13.1 6.6,13.2 6.7,13.2 6.8,13.2 6.8,13.2 
		6.9,13.2 6.9,13.2 	"/>
	<path class="st0" d="M13.2,21.8H9.4l-1-6.8h5.8L13.2,21.8L13.2,21.8L13.2,21.8z M20.3,14.3H15H7.5H2.3l-0.1,0H2.1l-0.1,0l0,0l0,0.1
		l-0.1,0l0,0.1v0v0.1l0,0.1L2,14.9l0,0l0,0l0.1,0l0.1,0h0.1h5.3l1.1,7.5h5.1l1-7.5h5.3h0.1l0.1,0l0,0l0,0l0,0l0-0.1l0-0.1v-0.1v0
		l0-0.1l0,0l0-0.1l0,0l0,0L20.3,14.3L20.3,14.3L20.3,14.3L20.3,14.3z"/>
	<path class="st0" d="M11.3,0.8l0.3,0l0.3,0.1l0.3,0.1L12.4,1l0.3,0.1L13,1.3l0.2,0.2l0.2,0.2l0.2,0.2l0.2,0.2l0.1,0.3L14,2.6
		l0.1,0.3l0.1,0.3l0,0.3l0,0.3l0,0.3l0,0.3l-0.1,0.3L14,4.9l-0.1,0.3l-0.1,0.2l-0.2,0.3l-0.2,0.2l-0.2,0.2L13,6.3l-0.3,0.1l-0.3,0.1
		l-0.3,0.1l-0.3,0.1l-0.3,0l-0.3,0l-0.3,0l-0.3,0l-0.2-0.1l-0.3-0.1L9.8,6.4L9.6,6.3L9.4,6.1L9.2,5.9L9,5.7L8.8,5.5L8.7,5.2L8.5,4.9
		L8.4,4.7L8.4,4.4l0-0.3V3.8V3.5l0-0.3l0.1-0.3l0.1-0.3l0.1-0.3l0.1-0.3L9,1.9l0.2-0.2l0.2-0.2l0.2-0.2l0.2-0.2L10.1,1l0.3-0.1
		l0.2-0.1L11,0.8L11.3,0.8L11.3,0.8L11.3,0.8z M11.3,7.6l0.4,0L12,7.5l0.4-0.1l0.3-0.2l0.3-0.2l0.3-0.2l0.3-0.2l0.2-0.3l0.2-0.3
		l0.2-0.3l0.2-0.3l0.1-0.3l0.1-0.4l0.1-0.4l0-0.4l0-0.4l0-0.4l0-0.4l-0.1-0.4l-0.1-0.4L14.6,2l-0.2-0.3l-0.2-0.3l-0.2-0.3l-0.2-0.3
		l-0.3-0.2l-0.3-0.2l-0.3-0.2l-0.3-0.1L12,0.1L11.7,0l-0.4,0l-0.4,0l-0.4,0.1l-0.4,0.1L9.8,0.3L9.5,0.5L9.2,0.7L8.9,0.9L8.7,1.1
		L8.4,1.4L8.2,1.7L8,2L7.9,2.3L7.7,2.7L7.6,3L7.6,3.4v0.4v0.4l0.1,0.4l0.1,0.4l0.1,0.4L8,5.6l0.2,0.3l0.2,0.3l0.2,0.3l0.3,0.3
		l0.2,0.2l0.3,0.2l0.3,0.2l0.3,0.2l0.4,0.1l0.4,0.1L11.3,7.6L11.3,7.6L11.3,7.6z"/>
	<polygon class="st0" points="10.6,12.7 12,12.7 11.7,9.4 10.9,9.4 10.6,12.7 10.6,12.7 	"/>
</g>
</svg>
