<?xml version="1.0" encoding="utf-8"?>
<!-- Generator: Adobe Illustrator 19.1.0, SVG Export Plug-In . SVG Version: 6.00 Build 0)  -->
<svg version="1.1" id="Layer_1" xmlns="http://www.w3.org/2000/svg" xmlns:xlink="http://www.w3.org/1999/xlink" x="0px" y="0px"
	 viewBox="0 0 22.6 22.4" style="enable-background:new 0 0 22.6 22.4;" xml:space="preserve">
<style type="text/css">
	.st0{fill-rule:evenodd;clip-rule:evenodd;}
</style>
<g>
	<path class="st0" d="M21.9,21.8h-7.5L12,18.2l0.2-0.1l0.2-0.1l0.2-0.2l0.1-0.2l0.1-0.2l0.1-0.2l0.1-0.3v-0.3v-1l0.2-0.1l0.3-0.1
		l0.3-0.1l0.2-0.1l5.9,1.6l0.3,0.1l0.2,0.1l0.2,0.1l0.2,0.2l0.2,0.2l0.2,0.2l0.2,0.2l0.2,0.2l0.2,0.2l0.1,0.2l0.1,0.2l0.1,0.3
		l0.1,0.2l0,0.3l0,0.3v0.3V21.8L21.9,21.8L21.9,21.8z M9.2,21.8l2.2-3.2l2.1,3.2H9.2L9.2,21.8L9.2,21.8z M0.8,19.9l0-0.3l0-0.3
		l0.1-0.3L1,18.9l0.1-0.3l0.1-0.2l0.1-0.2l0.1-0.2l0.2-0.2l0.2-0.2l0.2-0.2l0.2-0.2L2.3,17l0.2-0.1l0.2-0.1L3,16.6L8.9,15l0.3,0.2
		l0.2,0.2l0.3,0.1l0.3,0.1v1l0,0.3l0,0.3l0.1,0.2l0.1,0.2l0.1,0.2l0.2,0.2l0.2,0.1l0.2,0.1l-2.4,3.6H0.8V19.9L0.8,19.9L0.8,19.9z
		 M11.4,17.6h-0.2l-0.2,0l-0.2-0.1l-0.1-0.1l-0.1-0.1L10.7,17l0-0.2l0-0.3v-0.8l0.4,0.1l0.4,0l0.4,0l0.4-0.1v0.8v0.3L12.1,17l0,0.2
		l-0.1,0.1l-0.1,0.1l-0.2,0.1l-0.1,0H11.4L11.4,17.6L11.4,17.6z M7,10.8v-0.1l0-0.1l0-0.1l-0.1,0l-0.1-0.1l-0.1,0l-0.1,0H6.6H6.5
		l-0.1,0l-0.1,0l0-0.1l-0.1-0.1L6,10.1L6,9.9l0-0.2l0-0.2l0-0.1l0-0.2l0-0.2l0-0.2L6,8.7l0.1-0.1l0.1-0.2l0,0l0.1,0l0.1,0h0.1l0.1,0
		l0.1-0.1l0.1-0.1L7,8L7.4,6h0.5l0.5-0.1l0.4-0.1l0.4-0.1l0.4-0.1l0.3-0.1l0.3-0.1l0.2-0.1l0.2-0.1l0.2-0.2L10.8,5L11,4.9l0.2-0.3
		l0.2-0.2l0.2,0.2l0.3,0.3L11.9,5L12,5.1l0.2,0.2l0.2,0.1l0.3,0.1L13,5.6l0.3,0.1l0.3,0.1L14,5.8l0.4,0.1L14.8,6h0.5L15.7,8l0.1,0.1
		l0.1,0.1L16,8.3l0.1,0h0.1l0.1,0l0.1,0l0.1,0l0.1,0.2l0.1,0.1l0.1,0.2l0,0.2v0.2l0,0.2l0,0.1v0.2l0,0.2l-0.1,0.2l-0.1,0.1l-0.1,0.1
		l-0.1,0.1l-0.1,0l-0.1,0h-0.1H16l0,0l-0.1,0l-0.1,0.1l0,0l0,0.1l0,0.1v0.1v0.2l-0.1,0.3l0,0.3l-0.1,0.3l-0.1,0.2l-0.1,0.3l-0.1,0.2
		l-0.1,0.2L15,13l-0.2,0.2l-0.2,0.2l-0.2,0.2L14.1,14l-0.4,0.3l0,0h0l-0.3,0.2L13,14.7l-0.3,0.2l-0.3,0.1L12.1,15l-0.3,0.1l-0.3,0
		l-0.2,0l-0.2,0l-0.3,0L10.7,15l-0.3-0.1l-0.3-0.1l-0.3-0.2l-0.3-0.1l-0.3-0.2l0,0l0,0L8.7,14l-0.4-0.3l-0.2-0.2l-0.2-0.2L7.8,13
		l-0.2-0.2l-0.2-0.2l-0.1-0.2l-0.1-0.3l-0.1-0.2l-0.1-0.3L7,11.3l0-0.3L7,10.8L7,10.8L7,10.8z M6.5,2.4l0.2-0.2L6.9,2l0.2-0.2
		l0.3-0.2l0.3-0.1l0.3-0.2l0.3-0.1l0.3-0.1l0.3-0.1L9.1,1l0.3-0.1l0.4-0.1l0.4,0l0.4,0l0.4,0h0.4h0.4l0.4,0l0.4,0l0.4,0l0.4,0.1
		L13.6,1L14,1l0.3,0.1l0.3,0.1l0.3,0.1l0.3,0.2l0.2,0.1l0.3,0.2L15.8,2L16,2.2l0.2,0.2l0.2,0.3l0.2,0.2l0.1,0.3l0.1,0.2L17,3.8
		l0.1,0.4l0.1,0.7v0.2l-0.4,2.7l-0.2-0.1l-0.2-0.1L16,5.5L16,5.4l-0.1-0.1l-0.1-0.1l-0.1,0h-0.5l-0.5,0l-0.4-0.1l-0.4-0.1l-0.3,0
		l-0.3-0.1L13,4.8l-0.2-0.1l-0.2-0.1l-0.2-0.1l-0.2-0.1l-0.1-0.1L12.1,4l-0.1-0.2l-0.1-0.2l-0.2-0.2l-0.1,0l0,0l-0.1,0h-0.1h-0.1
		l-0.1,0l-0.1,0l0,0l-0.2,0.2l-0.1,0.2L10.7,4l-0.2,0.3l-0.1,0.1l-0.1,0.1l-0.2,0.1L9.9,4.7L9.7,4.8L9.4,4.9L9.2,5l-0.3,0L8.5,5.1
		L8.1,5.2l-0.5,0H7.1L7,5.2L6.8,5.3L6.8,5.4L6.7,5.5L6.3,7.6L6.1,7.7L5.9,7.8L5.5,5.1V4.8l0.1-0.7l0.1-0.4l0.2-0.5L6,3.1l0.2-0.2
		l0.2-0.2L6.5,2.4L6.5,2.4L6.5,2.4z M20,15.9l-5.4-1.5l0.4-0.3l0.4-0.4l0.3-0.4l0.3-0.4l0.2-0.5l0.2-0.4l0.1-0.2l0-0.2l0-0.2l0-0.3
		l0.1,0l0.1-0.1l0.1-0.1l0.1-0.1l0.2-0.2l0.2-0.2l0.1-0.3l0.1-0.3l0.1-0.3l0-0.3V9.2l0-0.2l-0.1-0.2l0-0.2l0.5-3.5V5V4.8V4.5L17.9,4
		l0-0.2l-0.1-0.3l-0.1-0.3L17.5,3l-0.2-0.3l-0.2-0.3L17,2.1l-0.3-0.3l-0.2-0.2l-0.3-0.2l-0.3-0.2L15.8,1l-0.3-0.1l-0.3-0.2l-0.3-0.2
		l-0.4-0.1l-0.4-0.1l-0.4-0.1l-0.4-0.1l-0.4-0.1L12.7,0l-0.4,0l-0.4,0h-0.5h-0.5l-0.4,0L10,0L9.6,0.1L9.2,0.2L8.9,0.3L8.5,0.4
		L8.2,0.5L7.8,0.6L7.5,0.7L7.2,0.9L6.9,1L6.7,1.2L6.4,1.4L6.2,1.6L5.9,1.9L5.7,2.1L5.5,2.4L5.4,2.7L5.2,3L5.1,3.2L5,3.5L4.9,3.8
		L4.9,4L4.8,4.5l0,0.4v0.2v0.1l0.5,3.5L5.2,8.8l0,0.2l0,0.2l0,0.2l0,0.3l0.1,0.3l0.1,0.3l0.2,0.3l0.1,0.2l0.2,0.2L5.9,11L6,11
		l0.2,0.1l0.1,0l0,0.3l0,0.2l0.1,0.2l0.1,0.2l0.2,0.5L6.9,13l0.3,0.4l0.3,0.4l0.3,0.4l0.4,0.3l-5.4,1.5l-0.3,0.2l-0.3,0.1l-0.3,0.2
		l-0.3,0.2l-0.2,0.2L1.2,17L1,17.2l-0.2,0.3l-0.2,0.2l-0.2,0.3l-0.1,0.3l-0.1,0.3L0.2,19l-0.1,0.3l0,0.3l0,0.3v2.6h8.5h5.7h8.5v-2.6
		v-0.3l0-0.3L22.6,19l-0.1-0.3l-0.1-0.3l-0.1-0.3l-0.2-0.3l-0.2-0.2l-0.2-0.3L21.5,17l-0.3-0.2l-0.2-0.2l-0.3-0.2l-0.3-0.2l-0.3-0.1
		L20,15.9L20,15.9L20,15.9z"/>
	<polygon class="st0" points="8.9,9 8.9,8.9 8.9,8.9 9.1,8.8 9.4,8.8 9.5,8.8 9.6,8.8 9.9,8.8 10.1,8.8 10.1,8.9 10.1,9 10.1,9 
		10.1,9.1 10.1,9.2 10.2,9.2 10.2,9.3 10.3,9.3 10.4,9.4 10.4,9.4 10.5,9.4 10.6,9.3 10.7,9.3 10.7,9.2 10.7,9.2 10.8,9.1 10.8,9 
		10.8,9 10.8,8.8 10.8,8.6 10.7,8.4 10.6,8.3 10.5,8.2 10.4,8.1 10.3,8.1 10.1,8.1 9.9,8 9.6,8 9.5,8 9.4,8 9.1,8 8.9,8.1 8.7,8.1 
		8.6,8.1 8.5,8.2 8.4,8.3 8.3,8.4 8.2,8.6 8.2,8.8 8.2,9 8.2,9 8.2,9.1 8.2,9.2 8.3,9.2 8.3,9.3 8.4,9.3 8.5,9.4 8.6,9.4 8.6,9.4 
		8.7,9.3 8.8,9.3 8.8,9.2 8.9,9.2 8.9,9.1 8.9,9 8.9,9 8.9,9 	"/>
	<polygon class="st0" points="12.3,9.4 12.3,9.4 12.4,9.3 12.5,9.3 12.5,9.2 12.6,9.2 12.6,9.1 12.6,9 12.7,9 12.7,8.9 12.7,8.9 
		12.9,8.8 13.1,8.8 13.2,8.8 13.4,8.8 13.6,8.8 13.8,8.8 13.8,8.9 13.8,9 13.8,9 13.8,9.1 13.9,9.2 13.9,9.2 14,9.3 14,9.3 
		14.1,9.4 14.2,9.4 14.2,9.4 14.3,9.3 14.4,9.3 14.4,9.2 14.5,9.2 14.5,9.1 14.5,9 14.5,9 14.5,8.8 14.5,8.6 14.4,8.4 14.3,8.3 
		14.2,8.2 14.1,8.1 14,8.1 13.9,8.1 13.6,8 13.4,8 13.2,8 13.1,8 12.8,8 12.6,8.1 12.5,8.1 12.3,8.1 12.2,8.2 12.1,8.3 12,8.4 
		12,8.6 11.9,8.8 11.9,9 11.9,9 11.9,9.1 12,9.2 12,9.2 12.1,9.3 12.1,9.3 12.2,9.4 12.3,9.4 12.3,9.4 	"/>
	<polygon class="st0" points="16.7,18.8 19.7,18.8 19.7,19.6 16.7,19.6 16.7,18.8 	"/>
</g>
</svg>
