<?xml version="1.0" encoding="utf-8"?>
<!-- Generator: Adobe Illustrator 19.1.0, SVG Export Plug-In . SVG Version: 6.00 Build 0)  -->
<svg version="1.1" id="Layer_1" xmlns="http://www.w3.org/2000/svg" xmlns:xlink="http://www.w3.org/1999/xlink" x="0px" y="0px"
	 viewBox="0 0 22.6 22.4" style="enable-background:new 0 0 22.6 22.4;" xml:space="preserve">
<g>
	<path d="M22.4,19.5l-0.9-6.4c-0.2-1.1-0.8-2-1.7-2.6l-0.9-3.8l0.7-0.3c0.4-0.2,0.5-0.6,0.3-0.9l-1.6-3.3C18.3,2,18.2,1.9,18,1.8
		c-0.2-0.1-0.4-0.1-0.5,0L15,3c-0.2,0.1-0.3,0.2-0.4,0.4c-0.1,0.2-0.1,0.4,0,0.6l1.5,3.3c0.1,0.3,0.4,0.4,0.7,0.4
		c0.1,0,0.2,0,0.3-0.1l0.7-0.3v2.7c0,0-0.1,0-0.1,0H4.8c0,0-0.1,0-0.1,0V7.2l0.7,0.3c0.1,0,0.2,0.1,0.3,0.1c0.3,0,0.5-0.2,0.7-0.4
		L7.9,4C8,3.8,8,3.6,7.9,3.4C7.9,3.2,7.7,3.1,7.6,3L5.1,1.8c-0.4-0.2-0.8,0-0.9,0.3L2.6,5.5C2.5,5.9,2.6,6.3,3,6.4l0.7,0.3l-0.9,3.8
		c-0.9,0.6-1.5,1.5-1.7,2.6l-0.9,6.4c0,0.3,0,0.6,0.2,0.8c0.2,0.2,0.5,0.3,0.8,0.3h20.1c0.3,0,0.6-0.1,0.8-0.3
		C22.3,20.1,22.4,19.8,22.4,19.5L22.4,19.5z M16.5,4.5l0.5-0.2l0.5,1l-0.5,0.2L16.5,4.5z M16.5,5.7L16,5.9l-0.5-1l0.5-0.2L16.5,5.7z
		 M16.9,2.6c0.1,0,0.2,0,0.2,0c0.1,0,0.1,0.1,0.2,0.2l0.3,0.7l-0.5,0.2l-0.5-1L16.9,2.6z M18.8,6.2c0,0.1-0.1,0.1-0.2,0.2l-0.2,0.1
		l-0.5-1l0.5-0.2L18.8,6C18.9,6.1,18.9,6.1,18.8,6.2L18.8,6.2z M17.8,5.1l-0.5-1l0.5-0.2l0.5,1L17.8,5.1z M16.8,3.9l-0.5,0.2l-0.5-1
		l0.5-0.2L16.8,3.9z M17.6,5.7l0.5,1l-0.5,0.2l-0.5-1L17.6,5.7z M17.8,2.2c0.1,0,0.1,0.1,0.2,0.1l1.6,3.3c0.1,0.1,0,0.3-0.1,0.4
		l-0.1,0.1c0-0.1,0-0.2-0.1-0.3l-1.5-3.3c0-0.1-0.1-0.2-0.2-0.2l0.1-0.1C17.7,2.2,17.8,2.2,17.8,2.2L17.8,2.2z M15,3.5
		c0-0.1,0.1-0.1,0.2-0.2l0.2-0.1l0.5,1l-0.5,0.2L15,3.8C15,3.7,15,3.6,15,3.5L15,3.5z M17,7.2c-0.2,0.1-0.3,0-0.4-0.1l-0.3-0.7
		l0.5-0.2l0.5,1L17,7.2z M18.3,7L18.5,7l0.8,3.3c-0.3-0.1-0.6-0.2-1-0.3V7z M5.5,2.5c0,0,0.1,0,0.1,0l0.2,0.1l-0.5,1L4.9,3.4
		l0.3-0.7C5.3,2.6,5.4,2.5,5.5,2.5L5.5,2.5z M5.6,5.5L5.1,5.3l0.5-1l0.5,0.2L5.6,5.5z M6.5,4.7L7,4.9l-0.5,1L6,5.7L6.5,4.7z
		 M5.4,5.9L5,6.9L4.5,6.7l0.5-1L5.4,5.9z M5.8,3.9l0.5-1l0.5,0.2l-0.5,1L5.8,3.9z M4.7,3.8l0.5,0.2l-0.5,1L4.3,4.8L4.7,3.8z
		 M4.1,5.2l0.5,0.2l-0.5,1L3.9,6.4c-0.1,0-0.1-0.1-0.2-0.2c0-0.1,0-0.2,0-0.2L4.1,5.2z M6,7C5.9,7.2,5.7,7.3,5.6,7.2L5.4,7.1l0.5-1
		l0.5,0.2L6,7z M7.5,3.5c0,0.1,0,0.2,0,0.2L7.2,4.5L6.7,4.3l0.5-1l0.2,0.1C7.4,3.4,7.5,3.5,7.5,3.5L7.5,3.5z M3,5.7l1.6-3.3
		c0.1-0.1,0.2-0.2,0.4-0.1l0.1,0C5,2.3,4.9,2.4,4.9,2.5L3.3,5.8c0,0.1-0.1,0.2-0.1,0.3L3.2,6C3,6,3,5.8,3,5.7L3,5.7z M4.1,7L4.2,7
		v2.9c-0.3,0.1-0.7,0.2-1,0.3L4.1,7z M11.8,18.8v1.4h-0.9v-1.4H11.8z M10.4,20.2H9.6v-1.4h0.8V20.2z M12.2,20.2v-1.4h0.8v1.4H12.2z
		 M13.5,20.2v-1.9H9.1v1.9h-1v-4.6h6.4v4.6H13.5z M3.3,13.1c0-0.5,0.2-1,0.5-1.3c0.4-0.4,0.8-0.5,1.3-0.5h12.2c1,0,1.9,0.8,1.9,1.9
		c0,0.3-0.1,0.5-0.2,0.8c-0.4-0.5-1-0.7-1.7-0.7H5.2c-0.6,0-1.2,0.2-1.6,0.7c0,0,0,0-0.1,0.1C3.4,13.6,3.3,13.4,3.3,13.1L3.3,13.1z
		 M3.9,14.1c0.4-0.4,0.8-0.5,1.3-0.5h12.2c0.6,0,1.1,0.3,1.4,0.7c0,0-0.1,0.1-0.1,0.1c-0.4,0.4-0.8,0.5-1.3,0.5h-2.5v-1.1H7.7V15
		H5.2c-0.6,0-1.1-0.3-1.4-0.7C3.8,14.2,3.8,14.2,3.9,14.1L3.9,14.1z M14.5,15.2H8.1v-0.9h6.4V15.2z M21.8,20
		c-0.1,0.1-0.3,0.2-0.4,0.2h-6.5v-4.8h2.5c0.6,0,1.2-0.2,1.6-0.7c0.4-0.4,0.7-1,0.7-1.6c0-1.3-1-2.3-2.3-2.3H5.2
		c-0.6,0-1.2,0.2-1.6,0.7c-0.4,0.4-0.7,1-0.7,1.6c0,1.3,1,2.3,2.3,2.3h2.5v4.8H1.2c-0.2,0-0.3-0.1-0.4-0.2c-0.1-0.1-0.2-0.3-0.1-0.5
		l0.9-6.4c0.2-1.6,1.6-2.9,3.3-2.9h12.9c1.7,0,3.1,1.2,3.3,2.9l0.9,6.4C21.9,19.8,21.9,19.9,21.8,20L21.8,20z M21.8,20"/>
	<rect x="8.7" y="16.1" width="0.4" height="1.7"/>
	<rect x="13.4" y="16.1" width="0.4" height="1.7"/>
	<rect x="9.6" y="16.1" width="0.4" height="1.7"/>
	<rect x="10.6" y="16.1" width="0.4" height="1.7"/>
	<rect x="11.5" y="16.1" width="0.4" height="1.7"/>
	<rect x="12.5" y="16.1" width="0.4" height="1.7"/>
	<rect x="4.8" y="15.8" width="2.2" height="0.4"/>
	<rect x="4.8" y="16.6" width="2.2" height="0.4"/>
	<rect x="4.8" y="17.4" width="2.2" height="0.4"/>
	<rect x="4.8" y="18.2" width="2.2" height="0.4"/>
</g>
</svg>
