<?xml version="1.0" encoding="utf-8"?>
<!-- Generator: Adobe Illustrator 19.1.0, SVG Export Plug-In . SVG Version: 6.00 Build 0)  -->
<svg version="1.1" id="Layer_1" xmlns="http://www.w3.org/2000/svg" xmlns:xlink="http://www.w3.org/1999/xlink" x="0px" y="0px"
	 viewBox="0 0 22.6 22.4" style="enable-background:new 0 0 22.6 22.4;" xml:space="preserve">
<style type="text/css">
	.st0{fill-rule:evenodd;clip-rule:evenodd;}
</style>
<g>
	<path class="st0" d="M12.4,14.2l-0.2,0l-0.2,0L11.8,14l-0.2-0.1l-0.1-0.2l-0.1-0.2l-0.1-0.2l0-0.2l0-0.2l0.1-0.2l0.1-0.2l0.1-0.2
		l0.2-0.1L12,12l0.2,0l0.2,0l0.2,0l0.2,0l0.2,0.1l0.2,0.1l0.1,0.2l0.1,0.2l0,0.2l0,0.2l0,0.2l0,0.2l-0.1,0.2l-0.1,0.2L13,14
		l-0.2,0.1l-0.2,0L12.4,14.2L12.4,14.2L12.4,14.2z M6.5,13v0.2l-0.1,0.2l-0.1,0.2l-0.1,0.2L6,14l-0.2,0.1l-0.2,0l-0.2,0l-0.2,0
		l-0.2,0L4.7,14l-0.1-0.1l-0.1-0.2l-0.1-0.2l-0.1-0.2l0-0.2l0-0.2l0.1-0.2l0.1-0.2l0.1-0.2l0.1-0.1L4.9,12l0.2,0l0.2,0l0.2,0l0.2,0
		L6,12.1l0.1,0.1l0.1,0.2l0.1,0.2l0.1,0.2V13L6.5,13L6.5,13z M12.4,11.2h-7l-0.2,0l-0.2,0l-0.1,0l-0.2,0.1l-0.2,0.1l-0.1,0.1
		l-0.1,0.1l-0.1,0.1l-0.1,0.1L3.8,12l-0.1,0.2l-0.1,0.2l0,0.1l-0.1,0.2l0,0.2l0,0.2l0,0.2l0,0.2l0.1,0.2l0,0.2l0.1,0.1l0.1,0.2
		l0.1,0.2l0.1,0.1l0.1,0.1l0.1,0.1l0.1,0.1l0.2,0.1l0.2,0l0.1,0l0.2,0h0.2h0.2l0.1,0l0.2,0l0.2,0l0.2-0.1l0.1-0.1l0.2-0.1l0.1-0.1
		l0.1-0.1l0.1-0.2L7,13.9l0.1-0.1l0-0.2l0.1-0.2l0-0.2V13l0-0.3l-0.1-0.3L7,12.2l-0.2-0.2h4.1l-0.1,0.2l-0.1,0.3l-0.1,0.3l0,0.3
		l0,0.2l0,0.2l0,0.2l0.1,0.2l0.1,0.1l0.1,0.2l0.1,0.2l0.1,0.1l0.1,0.1l0.1,0.1l0.2,0.1l0.1,0.1l0.2,0l0.2,0l0.2,0h0.2h0.2l0.2,0
		l0.2,0l0.1,0l0.2-0.1l0.1-0.1l0.1-0.1l0.1-0.1l0.1-0.1l0.1-0.2l0.1-0.2l0.1-0.1l0-0.2l0-0.2l0-0.2V13v-0.2l0-0.2l0-0.2l0-0.1
		L14,12.2L14,12l-0.1-0.1l-0.1-0.1l-0.1-0.1l-0.1-0.1l-0.1-0.1l-0.2-0.1L13,11.2l-0.2,0l-0.2,0L12.4,11.2L12.4,11.2L12.4,11.2z"/>
	<path class="st0" d="M21.6,16.1L21.6,16.1L21.6,16.1l-0.1,0.1l-0.1,0l-5-2v-2l5-2.1l0.1,0l0.1,0l0,0l0,0.1V16.1L21.6,16.1
		L21.6,16.1z M15.7,17.1v0.1l0,0.2l-0.1,0.1l-0.1,0.1l-0.1,0.1l-0.1,0.1l-0.1,0l-0.2,0H2.5H2.3l-0.2,0L2,17.7l-0.1-0.1l-0.1-0.1
		l0-0.1l0-0.2v-0.2V9.8V9.6l0.1-0.2l0-0.1l0.1-0.1L2,9.1l0.1,0L2.2,9h0.1h0h0h0h0H15l0.2,0l0.1,0l0.1,0.1l0.1,0.1l0.1,0.1l0.1,0.1
		l0,0.1v0.1V17.1L15.7,17.1L15.7,17.1z M18.3,4.6h2.6l0.2,0l0.2,0l0.1,0l0.1,0l0,0.1l0,0l0,0v0l0,0.1l0,0.1l-0.1,0l-0.1,0.1
		l-0.2,0.1h-0.2h-2.6H18l-0.2-0.1l-0.1-0.1l-0.1,0l-0.1-0.1l0-0.1v0v0l0,0l0.1-0.1l0.1,0l0.1,0l0.2,0L18.3,4.6L18.3,4.6L18.3,4.6z
		 M22,9.5l-0.2-0.1l-0.2,0l-0.1,0l-0.1,0l-0.1,0l-0.1,0l-4.7,1.9V9.8V9.6l0-0.1l0-0.1l0-0.1L16.2,9L16,8.8l-0.1-0.1l-0.1-0.1
		l-0.1-0.1l-0.1-0.1l-0.1,0l-0.1,0l-0.1,0l-0.2,0V5.8l0-0.1l0-0.1l0,0l0-0.1l0.2-0.1l0.2,0h1.4L17,5.6l0.1,0.1l0.2,0.1l0.2,0.1
		L17.7,6l0.2,0l0.2,0h0.2h2.6h0.3l0.3,0L21.6,6l0.2-0.1L22,5.8L22,5.7l0.1-0.1l0.1-0.1l0-0.1l0-0.1l0-0.1V5l0-0.2l0-0.2l-0.1-0.2
		L22,4.3L22,4.2l-0.1,0l-0.1-0.1l-0.1,0l-0.1,0l-0.2,0h-0.2l-0.2,0h-2.6l-0.3,0l-0.3,0l-0.2,0.1l-0.2,0.1l-0.1,0.1L17,4.4l-0.1,0.1
		l-0.1,0.1h-1.4l-0.3,0L15,4.7l-0.2,0.1L14.6,5l-0.1,0.2l-0.1,0.2l-0.1,0.2l0,0.3v2.5h-2.9V6.8v0v0l-0.1-0.3l-0.1-0.2L10.9,6
		l-0.2-0.2l-0.2-0.2l-0.2-0.1l-0.2-0.1l-0.2,0l0,0h0H0.6l-0.1,0H0.4l0,0l0,0L0.3,5.6l0,0l0,0.1v0v0.1l0,0.1l0,0L0.3,6l0,0l0,0l0.1,0
		h0.1h9.2l0.1,0l0.1,0l0.1,0.1l0.1,0.1l0.1,0.1l0.1,0.1l0.1,0.1l0,0.1v1.4H2.5H2.3H2.2l-0.1,0l-0.1,0l-0.1,0l-0.1,0L1.6,8.5L1.5,8.6
		L1.4,8.7L1.3,8.8L1.2,9L1.1,9.1l0,0.1L1,9.4l0,0.2v0.2v7.3v0.1l0,0.2l0,0.1l0,0.1l0,0.1l0.1,0.1l0.1,0.1l0.1,0.1l0.1,0.1l0.1,0.1
		l0.1,0l0.1,0L2,18.5l0.1,0l0.2,0h0.2H15h0.2l0.1,0l0.1,0l0.1-0.1l0.1,0l0.1-0.1l0.1-0.1l0.1-0.1l0.1-0.1l0.1-0.1l0.1-0.1l0.1-0.1
		l0-0.2l0-0.1l0-0.1v-0.1V15l4.7,1.9l0.2,0l0.2,0l0.1,0l0.1,0l0.1,0l0.1,0l0.1-0.1l0.1-0.2l0.1-0.2l0-0.2v-5.9l0-0.2l-0.1-0.2
		l-0.1-0.2L22,9.5L22,9.5L22,9.5z"/>
</g>
</svg>
