<?xml version="1.0" encoding="iso-8859-1"?>
<!-- Generator: Adobe Illustrator 17.1.0, SVG Export Plug-In . SVG Version: 6.00 Build 0)  -->
<!DOCTYPE svg PUBLIC "-//W3C//DTD SVG 1.1//EN" "http://www.w3.org/Graphics/SVG/1.1/DTD/svg11.dtd">
<svg version="1.1" id="Capa_1" xmlns="http://www.w3.org/2000/svg" xmlns:xlink="http://www.w3.org/1999/xlink" x="0px" y="0px"
	 viewBox="0 0 179.875 179.875" style="enable-background:new 0 0 179.875 179.875;" xml:space="preserve">
<path fill="#000" d="M0.001,84.938c1.235-22.469,10.744-42.766,25.523-57.898c8.332,6.99,26.064,25.559,27.679,57.898H0.001z M146.945,20.247
	C132.612,8.501,114.606,1.081,94.938,0v84.938h21.742C118.382,49.857,136.879,29.045,146.945,20.247z M126.673,94.938
	c1.615,32.339,19.347,50.908,27.679,57.898c14.779-15.132,24.288-35.429,25.523-57.898H126.673z M53.175,94.938H0.001
	c1.235,22.466,10.741,42.761,25.517,57.892C33.862,145.81,51.43,127.3,53.175,94.938z M63.226,84.938h21.712V0
	C65.29,1.08,47.302,8.485,32.976,20.21C43.117,28.958,61.672,49.657,63.226,84.938z M126.7,84.938h53.174
	c-1.235-22.466-10.741-42.761-25.517-57.892C146.013,34.065,128.445,52.576,126.7,84.938z M116.649,94.938H94.938v84.938
	c19.647-1.08,37.636-8.485,51.962-20.21C136.758,150.917,118.203,130.218,116.649,94.938z M84.938,94.938H63.195
	c-1.702,35.081-20.199,55.892-30.265,64.691c14.333,11.746,32.339,19.165,52.008,20.247V94.938z"/>
<g>
</g>
<g>
</g>
<g>
</g>
<g>
</g>
<g>
</g>
<g>
</g>
<g>
</g>
<g>
</g>
<g>
</g>
<g>
</g>
<g>
</g>
<g>
</g>
<g>
</g>
<g>
</g>
<g>
</g>
</svg>
