<?xml version="1.0" encoding="iso-8859-1"?>
<!-- Generator: Adobe Illustrator 18.1.1, SVG Export Plug-In . SVG Version: 6.00 Build 0)  -->
<svg version="1.1" id="Capa_1" xmlns="http://www.w3.org/2000/svg" xmlns:xlink="http://www.w3.org/1999/xlink" x="0px" y="0px"
	 viewBox="0 0 326.067 326.067" style="enable-background:new 0 0 326.067 326.067;" xml:space="preserve">
<g fill="#000">
	<g>
		<path style="fill:#000;" d="M317.793,52.77l-86.258-21.414c-4.988-1.273-9.915-1.833-14.637-1.828
			c-0.25-0.005-0.49-0.038-0.74-0.038H200.13C196.077,46.352,180.941,58.9,162.834,58.9s-33.244-12.548-37.296-29.409h-15.507
			c-0.25,0-0.495,0.033-0.745,0.038c-4.759-0.022-9.73,0.544-14.767,1.828L8.277,52.77c-5.88,1.458-9.431,7.403-7.936,13.271
			l9.404,36.871c1.496,5.869,7.479,9.448,13.358,7.985l27.315-6.783c5.88-1.458,10.644,2.268,10.644,8.327v173.163
			c0,6.059,4.911,10.971,10.971,10.971h182.133c6.059,0,10.971-4.911,10.971-10.971V112.475c0-6.059,4.765-9.785,10.644-8.327
			l27.179,6.744c5.88,1.458,11.863-2.116,13.358-7.985l9.404-36.871C327.224,60.167,323.672,54.228,317.793,52.77z M189.779,192.755
			c-6.929,6.57-16.616,9.856-29.055,9.856s-21.86-3.285-28.251-9.856c-6.402-6.57-9.6-14.533-9.6-23.894
			c0-6.239,1.409-11.89,4.232-16.948c2.812-5.064,6.94-8.871,12.385-11.427c-5.396-3.579-8.898-7.452-10.508-11.618
			c-1.621-4.166-2.431-8.066-2.431-11.694c0-8.077,3.04-14.968,9.154-20.668c6.086-5.7,14.702-8.55,25.819-8.55
			c11.123,0,19.722,2.85,25.819,8.55s9.154,12.591,9.154,20.668c0,3.628-0.805,7.528-2.415,11.694s-5.102,7.783-10.47,10.851
			c5.499,3.068,9.627,7.131,12.401,12.194c2.774,5.064,4.166,10.71,4.166,16.948C200.184,178.222,196.719,186.185,189.779,192.755z"
			/>
		<path style="fill:#000;" d="M161.605,150.075c-4.911,0-8.806,1.469-11.699,4.411c-2.888,2.943-4.335,7.25-4.335,12.923
			c0,5.472,1.42,9.714,4.259,12.733c2.839,3.019,6.761,4.525,11.776,4.525c5.009,0,8.936-1.507,11.776-4.525
			c2.839-3.019,4.259-7.261,4.259-12.733c0-5.678-1.447-9.986-4.335-12.923C170.411,151.543,166.516,150.075,161.605,150.075z"/>
		<path style="fill:#000;" d="M161.567,133.355c4.46,0,7.914-1.278,10.34-3.835c2.442-2.556,3.655-5.852,3.655-9.894
			c0-4.395-1.213-7.838-3.655-10.318c-2.431-2.48-5.88-3.72-10.34-3.72c-4.411,0-7.859,1.24-10.34,3.72
			c-2.491,2.48-3.731,5.918-3.731,10.318c0,4.041,1.24,7.337,3.731,9.894C153.707,132.077,157.156,133.355,161.567,133.355z"/>
	</g>
</g>
<g>
</g>
<g>
</g>
<g>
</g>
<g>
</g>
<g>
</g>
<g>
</g>
<g>
</g>
<g>
</g>
<g>
</g>
<g>
</g>
<g>
</g>
<g>
</g>
<g>
</g>
<g>
</g>
<g>
</g>
</svg>
