<?xml version="1.0" encoding="iso-8859-1"?>
<!-- Generator: Adobe Illustrator 16.0.0, SVG Export Plug-In . SVG Version: 6.00 Build 0)  -->
<!DOCTYPE svg PUBLIC "-//W3C//DTD SVG 1.1//EN" "http://www.w3.org/Graphics/SVG/1.1/DTD/svg11.dtd">
<svg version="1.1" id="Capa_1" xmlns="http://www.w3.org/2000/svg" xmlns:xlink="http://www.w3.org/1999/xlink" x="0px" y="0px"
	 width="45.921px" height="45.922px" viewBox="0 0 45.921 45.922" style="enable-background:new 0 0 45.921 45.922;"
	 xml:space="preserve">
<g fill="#000">
	<g>
		<path d="M13.158,19.167l7.576-11.171c2.115-3.117,6.369-3.933,9.487-1.819c3.23,2.192,4.076,6.602,1.885,9.833l-3.099,4.568
			c1.757-0.784,3.701-1.22,5.745-1.22c0.084,0,0.168,0.001,0.252,0.003l0.643-0.948c3.517-5.184,2.16-12.261-3.022-15.777
			c-5.071-3.438-11.992-2.112-15.432,2.958L1.856,28.203c-3.339,4.924-2.051,11.645,2.872,14.983
			c5.331,3.617,12.609,2.221,16.225-3.109l0.751-1.106c-0.707-1.683-1.099-3.529-1.099-5.465c0-2.85,0.847-5.502,2.301-7.726
			L13.158,19.167z"/>
		<path d="M34.752,22.335c-6.168,0-11.169,5.001-11.169,11.169c0,6.169,5.001,11.169,11.169,11.169s11.169-5,11.169-11.169
			C45.921,27.337,40.92,22.335,34.752,22.335z M40.469,35.472H29.036c-1.097,0-1.985-0.888-1.985-1.984
			c0-1.096,0.89-1.983,1.985-1.983h11.434c1.096,0,1.985,0.888,1.985,1.983C42.455,34.585,41.565,35.472,40.469,35.472z"/>
	</g>
</g>
<g>
</g>
<g>
</g>
<g>
</g>
<g>
</g>
<g>
</g>
<g>
</g>
<g>
</g>
<g>
</g>
<g>
</g>
<g>
</g>
<g>
</g>
<g>
</g>
<g>
</g>
<g>
</g>
<g>
</g>
</svg>
