<?xml version="1.0" encoding="iso-8859-1"?>
<!-- Generator: Adobe Illustrator 19.0.0, SVG Export Plug-In . SVG Version: 6.00 Build 0)  -->
<svg version="1.1" id="Capa_1" xmlns="http://www.w3.org/2000/svg" xmlns:xlink="http://www.w3.org/1999/xlink" x="0px" y="0px"
	 viewBox="0 0 452.986 452.986" style="enable-background:new 0 0 452.986 452.986;" xml:space="preserve">
<g fill="#000">
	<g>
		<g>
			<path style="fill:#000;" d="M3.581,0v452.986h445.825V0H3.581z M27.891,428.676c0-14.345,0-168.403,0-282.405h397.204
				c0,113.98,0,268.039,0,282.405C402.834,428.676,50.152,428.676,27.891,428.676z"/>
			<rect x="249.38" y="178.153" style="fill:#000;" width="149.313" height="21.765"/>
			<rect x="249.38" y="243.405" style="fill:#000;" width="149.313" height="21.765"/>
			<rect x="249.38" y="308.656" style="fill:#000;" width="149.313" height="21.7"/>
			<rect x="249.38" y="373.865" style="fill:#000;" width="149.313" height="21.722"/>
			<rect x="58.004" y="373.865" style="fill:#000;" width="149.313" height="21.722"/>
			<path style="fill:#000;" d="M58.004,330.141h149.313v-152.29H58.004V330.141z M130.244,194.741
				c16.221,0,29.379,13.158,29.379,29.379S146.466,253.5,130.244,253.5s-29.379-13.137-29.379-29.379
				S114.023,194.741,130.244,194.741z M94.782,268.319c0-5.91,4.853-10.785,10.785-10.785h50.368
				c5.932,0,10.785,4.875,10.785,10.785v37.21h-0.022c0,5.932-4.853,10.785-10.785,10.785h-50.346
				c-5.932,0-10.785-4.853-10.785-10.785V268.319z"/>
		</g>
	</g>
	<g>
	</g>
	<g>
	</g>
	<g>
	</g>
	<g>
	</g>
	<g>
	</g>
	<g>
	</g>
	<g>
	</g>
	<g>
	</g>
	<g>
	</g>
	<g>
	</g>
	<g>
	</g>
	<g>
	</g>
	<g>
	</g>
	<g>
	</g>
	<g>
	</g>
</g>
<g>
</g>
<g>
</g>
<g>
</g>
<g>
</g>
<g>
</g>
<g>
</g>
<g>
</g>
<g>
</g>
<g>
</g>
<g>
</g>
<g>
</g>
<g>
</g>
<g>
</g>
<g>
</g>
<g>
</g>
</svg>
